<svg width="184" height="24" viewBox="0 0 184 24" fill="none" xmlns="http://www.w3.org/2000/svg">
<path fill-rule="evenodd" clip-rule="evenodd" d="M9.54101 9.33346V15.3335C9.54101 17.9093 7.40358 20.0003 4.77051 20.0003C2.13743 20.0003 0 17.9093 0 15.3335V4.66673C0 2.09093 2.13743 0 4.77051 0H15.6745C18.3076 0 20.445 2.09093 20.445 4.66673C20.445 7.24253 18.3076 9.33346 15.6745 9.33346H9.54101Z" fill="#034AFD"/>
<path opacity="0.85" fill-rule="evenodd" clip-rule="evenodd" d="M13.6299 13.3335V19.3336C13.6299 21.9094 11.4924 24.0003 8.85937 24.0003C6.2263 24.0003 4.08887 21.9094 4.08887 19.3336V8.66675C4.08887 6.09095 6.2263 4 8.85937 4H19.7634C22.3965 4 24.5339 6.09095 24.5339 8.66675C24.5339 11.2425 22.3965 13.3335 19.7634 13.3335H13.6299Z" fill="#00E095"/>
<path d="M33.5225 17.9346V6.28296C33.5225 5.15163 34.4621 4.23242 35.6186 4.23242H41.0499C42.8828 4.23242 44.2922 4.66676 45.268 5.53546C46.2438 6.40416 46.7343 7.57085 46.7343 9.03047C46.7343 10.4901 46.2386 11.6568 45.2474 12.5255C44.2561 13.3942 42.857 13.8285 41.0499 13.8285H37.6992V17.9346C37.6992 19.0609 36.7648 19.9751 35.6134 19.9751C34.4569 19.9751 33.5225 19.0609 33.5225 17.9346ZM37.6941 10.7325H40.4924C41.3081 10.7325 41.9018 10.5911 42.2787 10.3032C42.6556 10.0153 42.8466 9.60624 42.8466 9.07592C42.8466 8.51531 42.6608 8.09105 42.2942 7.80317C41.9225 7.51529 41.3236 7.37388 40.4975 7.37388H37.6992V10.7325H37.6941Z" fill="#2F3138"/>
<path d="M48.7324 17.9447V6.2678C48.7324 5.14658 49.6617 4.23242 50.8131 4.23242H58.387C59.2854 4.23242 60.0133 4.94455 60.0133 5.82335C60.0133 6.70215 59.2854 7.41428 58.387 7.41428H52.7956V10.379H55.4132C56.3115 10.379 57.0395 11.0911 57.0395 11.9699C57.0395 12.8487 56.3115 13.5608 55.4132 13.5608H52.7956V16.7882H58.387C59.2854 16.7882 60.0133 17.5003 60.0133 18.3791C60.0133 19.2579 59.2854 19.97 58.387 19.97H50.8079C49.6617 19.9751 48.7324 19.066 48.7324 17.9447Z" fill="#2F3138"/>
<path d="M62.1401 17.9144V6.29305C62.1401 5.15667 63.0849 4.23242 64.2466 4.23242H68.5989C70.3594 4.23242 71.8722 4.54555 73.1268 5.17182C74.3865 5.79809 75.352 6.6971 76.0231 7.86883C76.6943 9.04056 77.0351 10.4446 77.0351 12.081C77.0351 13.7325 76.6995 15.1467 76.0335 16.3285C75.3674 17.5104 74.4071 18.4094 73.1474 19.0357C71.8877 19.6619 70.3698 19.9751 68.5937 19.9751H64.2414C63.0849 19.9751 62.1401 19.0559 62.1401 17.9144ZM66.3169 16.6619H68.3149C69.8535 16.6619 71.0048 16.2831 71.7689 15.5255C72.533 14.7679 72.9099 13.6214 72.9099 12.0861C72.9099 9.06582 71.3765 7.55064 68.3149 7.55064H66.3169V16.6619Z" fill="#2F3138"/>
<path d="M79.4824 17.9346V6.27284C79.4824 5.14657 80.4169 4.23242 81.5682 4.23242C82.7196 4.23242 83.654 5.14657 83.654 6.27284V17.9346C83.654 19.0609 82.7196 19.9751 81.5682 19.9751C80.4169 19.9751 79.4824 19.0609 79.4824 17.9346Z" fill="#2F3138"/>
<path d="M86.499 17.7377V6.46982C86.499 5.23243 87.5213 4.23242 88.7862 4.23242H92.9578C94.7183 4.23242 96.2311 4.54555 97.4856 5.17182C98.7454 5.79809 99.7108 6.6971 100.382 7.86883C101.053 9.04056 101.394 10.4446 101.394 12.081C101.394 13.7325 101.064 15.1467 100.392 16.3285C99.7263 17.5104 98.766 18.4094 97.5063 19.0357C96.2466 19.6619 94.7287 19.9751 92.9526 19.9751H88.781C87.5264 19.9751 86.499 18.9751 86.499 17.7377ZM90.6758 16.6619H92.6738C94.2124 16.6619 95.3637 16.2831 96.1278 15.5255C96.8919 14.7679 97.2688 13.6214 97.2688 12.0861C97.2688 9.06582 95.7354 7.55064 92.6738 7.55064H90.6758V16.6619Z" fill="#2F3138"/>
<path d="M111.369 20.1768C109.737 20.1768 108.328 19.8435 107.14 19.1818C105.948 18.5202 105.029 17.5808 104.388 16.3737C103.743 15.1666 103.423 13.7373 103.423 12.0858C103.423 10.4494 103.748 9.02512 104.399 7.81804C105.049 6.61095 105.968 5.6766 107.15 5.02003C108.333 4.36345 109.742 4.03516 111.369 4.03516C112.995 4.03516 114.399 4.36345 115.576 5.02003C116.753 5.6766 117.662 6.61095 118.307 7.81804C118.953 9.02512 119.273 10.4494 119.273 12.0858C119.273 13.7373 118.953 15.1666 118.307 16.3737C117.662 17.5808 116.753 18.5202 115.576 19.1818C114.399 19.8435 113 20.1768 111.369 20.1768ZM111.369 17.0152C112.525 17.0152 113.444 16.601 114.131 15.7778C114.817 14.9545 115.163 13.7222 115.163 12.0858C115.163 10.4645 114.817 9.2423 114.131 8.42411C113.444 7.60592 112.52 7.19682 111.369 7.19682C110.212 7.19682 109.293 7.60087 108.617 8.41402C107.935 9.22716 107.594 10.4494 107.594 12.0858C107.594 13.7373 107.935 14.9697 108.617 15.7878C109.298 16.606 110.217 17.0152 111.369 17.0152Z" fill="#2F3138"/>
<path d="M121.715 17.9447V6.30315C121.715 5.15667 122.665 4.23242 123.832 4.23242H129.242C131.075 4.23242 132.485 4.66676 133.46 5.53546C134.436 6.40416 134.927 7.57085 134.927 9.03047C134.927 10.4901 134.431 11.6568 133.44 12.5255C132.448 13.3942 131.049 13.8285 129.242 13.8285H125.892V17.9447C125.892 19.066 124.962 19.9801 123.811 19.9801H123.795C122.649 19.9751 121.715 19.066 121.715 17.9447ZM125.892 10.7325H128.69C129.506 10.7325 130.099 10.5911 130.476 10.3032C130.853 10.0153 131.044 9.60624 131.044 9.07592C131.044 8.51531 130.858 8.09105 130.492 7.80317C130.12 7.51529 129.521 7.37388 128.695 7.37388H125.897V10.7325H125.892Z" fill="#2F3138"/>
<path d="M136.259 19.9751H136.187C134.839 19.9751 133.946 18.6114 134.509 17.4144L140.208 5.28294C140.508 4.64151 141.164 4.23242 141.886 4.23242H142.805C143.528 4.23242 144.179 4.64151 144.483 5.28294L150.199 17.4144C150.761 18.6114 149.868 19.9751 148.521 19.9751C147.777 19.9751 147.106 19.5407 146.822 18.869L141.948 7.56579H142.857L137.963 18.869C137.668 19.5458 137.002 19.9751 136.259 19.9751ZM136.729 16.7275L138.35 13.6113H146.099L147.7 16.7275H136.729Z" fill="#2F3138"/>
<path d="M159.89 20.177C158.155 20.177 156.663 19.8537 155.403 19.2022C154.143 18.5557 153.173 17.6264 152.496 16.4143C151.815 15.2072 151.474 13.7627 151.474 12.0809C151.474 10.4445 151.815 9.02026 152.496 7.81317C153.178 6.60608 154.138 5.67172 155.372 5.01514C156.606 4.35857 158.062 4.03027 159.735 4.03027C160.876 4.03027 161.95 4.17674 162.967 4.47473C163.452 4.61614 163.891 4.78282 164.288 4.96969C164.975 5.29798 165.259 6.10607 164.954 6.7879L164.763 7.21215C164.443 7.93438 163.576 8.25257 162.848 7.92428C162.564 7.79802 162.29 7.6869 162.022 7.60104C161.356 7.38891 160.638 7.28285 159.869 7.28285C158.465 7.28285 157.417 7.67679 156.725 8.46468C156.038 9.25257 155.692 10.4597 155.692 12.0809C155.692 13.7627 156.048 15.0052 156.771 15.8183C157.489 16.6315 158.594 17.0355 160.091 17.0355C160.566 17.0355 161.051 17.0002 161.557 16.9244C162.063 16.8486 162.569 16.7325 163.091 16.5709L162.182 17.7628V13.9799C162.182 13.9294 162.141 13.889 162.089 13.889H160.865C160.07 13.889 159.43 13.2627 159.43 12.485C159.43 11.7072 160.07 11.0809 160.865 11.0809H164.5C165.295 11.0809 165.935 11.7072 165.935 12.485V17.586C165.935 18.48 165.342 19.2729 164.464 19.5356C164.345 19.5709 164.221 19.6063 164.103 19.6366C163.442 19.8133 162.76 19.9446 162.048 20.0356C161.33 20.1315 160.612 20.177 159.89 20.177Z" fill="#2F3138"/>
<path d="M176.096 20.1768C174.464 20.1768 173.055 19.8435 171.867 19.1818C170.675 18.5202 169.756 17.5808 169.115 16.3737C168.47 15.1666 168.15 13.7373 168.15 12.0858C168.15 10.4494 168.475 9.02512 169.126 7.81804C169.776 6.61095 170.695 5.6766 171.878 5.02003C173.06 4.36345 174.469 4.03516 176.096 4.03516C177.722 4.03516 179.126 4.36345 180.303 5.02003C181.48 5.6766 182.389 6.61095 183.034 7.81804C183.68 9.02512 184 10.4494 184 12.0858C184 13.7373 183.68 15.1666 183.034 16.3737C182.389 17.5808 181.48 18.5202 180.303 19.1818C179.126 19.8435 177.727 20.1768 176.096 20.1768ZM176.096 17.0152C177.252 17.0152 178.171 16.601 178.858 15.7778C179.544 14.9545 179.89 13.7222 179.89 12.0858C179.89 10.4645 179.544 9.2423 178.858 8.42411C178.171 7.60592 177.247 7.19682 176.096 7.19682C174.939 7.19682 174.02 7.60087 173.344 8.41402C172.662 9.22716 172.322 10.4494 172.322 12.0858C172.322 13.7373 172.662 14.9697 173.344 15.7878C174.025 16.606 174.944 17.0152 176.096 17.0152Z" fill="#2F3138"/>
</svg>
